<svg xmlns="http://www.w3.org/2000/svg" width="32.5" height="30.833" viewBox="0 0 32.5 30.833">
  <path id="comment-Regular_1_" d="M421.833,1301.25H405.167a7.926,7.926,0,0,0-7.917,7.917v21.667a1.251,1.251,0,0,0,.772,1.155,1.229,1.229,0,0,0,.478.1,1.244,1.244,0,0,0,.883-.367l4.023-4.023a2.07,2.07,0,0,1,1.473-.61h16.953a7.926,7.926,0,0,0,7.917-7.917v-10A7.926,7.926,0,0,0,421.833,1301.25Zm5.417,17.917a5.423,5.423,0,0,1-5.417,5.417H404.882a4.552,4.552,0,0,0-3.242,1.343l-1.89,1.89v-18.65a5.423,5.423,0,0,1,5.417-5.417h16.667a5.423,5.423,0,0,1,5.417,5.417Z" transform="translate(-397.25 -1301.25)" fill="#303030"/>
</svg>
