<svg xmlns="http://www.w3.org/2000/svg" width="57" height="57" viewBox="0 0 57 57">
  <g id="Group_56" data-name="Group 56" transform="translate(-412 -1464)">
    <rect id="Path" width="57" height="57" transform="translate(412 1464)" fill="rgba(255,255,255,0)"/>
    <path id="users-Regular_1_" d="M767.689,1263.421v1.2a8.325,8.325,0,0,1-2.159,5.6,1.782,1.782,0,0,1-2.641-2.394,4.774,4.774,0,0,0,1.237-3.208v-1.2a6.974,6.974,0,0,0-5.287-6.795,2.151,2.151,0,0,0-1.563.2,14.186,14.186,0,0,1-13.6.01,2.15,2.15,0,0,0-1.579-.209,6.975,6.975,0,0,0-5.289,6.795v1.2a4.772,4.772,0,0,0,1.237,3.208,1.781,1.781,0,0,1-2.639,2.391,8.325,8.325,0,0,1-2.159-5.6v-1.2a10.531,10.531,0,0,1,7.99-10.253,5.761,5.761,0,0,1,4.17.551,10.6,10.6,0,0,0,10.134-.01,5.75,5.75,0,0,1,4.156-.542A10.545,10.545,0,0,1,767.689,1263.421Zm3.885-10.25a1.782,1.782,0,1,0-.86,3.458,6.974,6.974,0,0,1,5.287,6.795v1.2a4.767,4.767,0,0,1-1.237,3.208,1.782,1.782,0,0,0,2.641,2.394,8.326,8.326,0,0,0,2.159-5.6v-1.2A10.532,10.532,0,0,0,771.575,1253.171Zm-32.385-12.64a11.281,11.281,0,1,1,11.281,11.281A11.294,11.294,0,0,1,739.189,1240.531Zm3.563,0a7.719,7.719,0,1,0,7.719-7.719A7.728,7.728,0,0,0,742.752,1240.531Zm30.875,0a11.289,11.289,0,0,0-9.873-11.193,1.781,1.781,0,0,0-.442,3.534,7.721,7.721,0,0,1,3.857,13.687,1.781,1.781,0,1,0,2.228,2.779A11.238,11.238,0,0,0,773.627,1240.531Z" transform="translate(-315.908 242.469)" fill="#303030"/>
  </g>
</svg>
