<svg xmlns="http://www.w3.org/2000/svg" width="57" height="57" viewBox="0 0 57 57">
  <g id="Group_40" data-name="Group 40" transform="translate(-358 -1462)">
    <rect id="Path" width="57" height="57" transform="translate(358 1462)" fill="rgba(255,255,255,0)"/>
    <path id="users-Filled_1_" d="M778.125,2734.582v1.211a7.619,7.619,0,0,1-1.686,4.8,2.192,2.192,0,0,1-1.757.784h-6.365a11.163,11.163,0,0,0,1.5-5.582v-1.211a13.451,13.451,0,0,0-3.4-8.978,2.623,2.623,0,0,0,.451-.214,5.177,5.177,0,0,1,3.729-.5A9.971,9.971,0,0,1,778.125,2734.582ZM761.5,2701a9.672,9.672,0,0,0-2.209.238,14.2,14.2,0,0,1,0,20.9,9.672,9.672,0,0,0,2.209.238,10.688,10.688,0,0,0,0-21.375Zm-11.875,0a10.688,10.688,0,1,0,10.688,10.688A10.7,10.7,0,0,0,749.625,2701Zm9.1,23.893a5.671,5.671,0,0,0-1.259-.143,4.914,4.914,0,0,0-2.47.641,11.31,11.31,0,0,1-10.687.024,5.341,5.341,0,0,0-2.541-.665,5.5,5.5,0,0,0-1.093.119,9.921,9.921,0,0,0-7.671,9.714v1.211a7.621,7.621,0,0,0,1.686,4.8,2.191,2.191,0,0,0,1.757.784h26.363a2.191,2.191,0,0,0,1.757-.784,7.621,7.621,0,0,0,1.686-4.8v-1.211A9.97,9.97,0,0,0,758.721,2724.893Z" transform="translate(-370.25 -1229.5)" fill="#f90000"/>
  </g>
</svg>
