<svg xmlns="http://www.w3.org/2000/svg" width="57" height="57" viewBox="0 0 57 57">
  <g id="Group_41" data-name="Group 41" transform="translate(-145 -1464)">
    <rect id="Path" width="57" height="57" transform="translate(145 1464)" fill="none"/>
    <path id="home-Regular_1_" d="M247.354,1024.275l-11.875-9.548a11.359,11.359,0,0,0-14.146,0l-11.875,9.548a11.21,11.21,0,0,0-4.208,8.778v14.231a11.289,11.289,0,0,0,11.281,11.269h6.531v-11.269a5.344,5.344,0,0,1,10.688,0v11.269h6.531a11.288,11.288,0,0,0,11.281-11.269v-14.231A11.21,11.21,0,0,0,247.354,1024.275Zm.646,23.009a7.722,7.722,0,0,1-7.719,7.707h-2.969v-7.707a8.906,8.906,0,0,0-17.812,0v7.707h-2.969a7.722,7.722,0,0,1-7.719-7.707v-14.231a7.664,7.664,0,0,1,2.876-6l11.875-9.548a7.779,7.779,0,0,1,9.683,0l11.875,9.548a7.664,7.664,0,0,1,2.876,6v14.231Z" transform="translate(-54.906 457.103)" fill="#303030"/>
  </g>
</svg>
