<svg xmlns="http://www.w3.org/2000/svg" width="57" height="57" viewBox="0 0 57 57">
  <g id="Group_55" data-name="Group 55" transform="translate(-93 -1464)">
    <rect id="Path" width="57" height="57" transform="translate(93 1464)" fill="rgba(255,255,255,0)"/>
    <path id="home-Filled_1_" d="M250.625,2503.711v14.23a10.691,10.691,0,0,1-10.687,10.673H234v-10.676a5.938,5.938,0,0,0-11.875,0v10.676h-5.937a10.693,10.693,0,0,1-10.687-10.673v-14.23a10.632,10.632,0,0,1,3.985-8.317l11.875-9.545a10.762,10.762,0,0,1,13.4,0l11.875,9.545A10.624,10.624,0,0,1,250.625,2503.711Z" transform="translate(-106.563 -1013.553)" fill="#f90000"/>
  </g>
</svg>
