<svg xmlns="http://www.w3.org/2000/svg" width="40" height="40" viewBox="0 0 40 40">
  <g id="Group_21" data-name="Group 21" transform="translate(-152 -486)">
    <rect id="Path" width="40" height="40" transform="translate(152 486)" fill="rgba(255,255,255,0)"/>
    <path id="heart-Regular_1_" d="M331.015,1017.16a10.407,10.407,0,0,0-8.137-3.91,11.269,11.269,0,0,0-5.38,1.347,11.258,11.258,0,0,0-5.38-1.347,10.4,10.4,0,0,0-8.137,3.91,12.23,12.23,0,0,0-2.508,10.022c1.625,8.327,10.1,14.143,13.677,16.257a4.611,4.611,0,0,0,4.7,0c3.57-2.115,12.052-7.93,13.677-16.257A12.237,12.237,0,0,0,331.015,1017.16Zm.055,9.543c-1.43,7.332-9.215,12.642-12.5,14.583a2.11,2.11,0,0,1-2.15,0c-3.282-1.942-11.067-7.252-12.5-14.583a9.707,9.707,0,0,1,1.983-7.953,7.95,7.95,0,0,1,6.208-3,8.718,8.718,0,0,1,4.707,1.35,1.254,1.254,0,0,0,1.347,0,8.717,8.717,0,0,1,4.707-1.35,7.953,7.953,0,0,1,6.208,3A9.711,9.711,0,0,1,331.07,1026.7Z" transform="translate(-145.499 -521.833)" fill="#303030"/>
  </g>
</svg>
