<svg xmlns="http://www.w3.org/2000/svg" width="23.47" height="30.804" viewBox="0 0 23.47 30.804">
  <path id="ic_lock_outline_24px" d="M15.735,24.47A2.934,2.934,0,1,0,12.8,21.536,2.942,2.942,0,0,0,15.735,24.47Zm8.8-13.2H23.069V8.334a7.334,7.334,0,0,0-14.669,0v2.934H6.934A2.942,2.942,0,0,0,4,14.2V28.871A2.942,2.942,0,0,0,6.934,31.8h17.6a2.942,2.942,0,0,0,2.934-2.934V14.2A2.942,2.942,0,0,0,24.536,11.268ZM11.188,8.334a4.547,4.547,0,0,1,9.095,0v2.934H11.188ZM24.536,28.871H6.934V14.2h17.6Z" transform="translate(-4 -1)" fill="#f90000"/>
</svg>
