<svg xmlns="http://www.w3.org/2000/svg" width="65" height="62.233" viewBox="0 0 65 62.233">
  <path id="Union_3" data-name="Union 3" d="M-2369.151,263.788a32.515,32.515,0,0,1-10.33-6.669,30.978,30.978,0,0,1-6.965-9.89A29.791,29.791,0,0,1-2389,235.117,29.785,29.785,0,0,1-2386.446,223a30.981,30.981,0,0,1,6.965-9.891,32.512,32.512,0,0,1,10.33-6.668A33.544,33.544,0,0,1-2356.5,204a33.536,33.536,0,0,1,12.649,2.445,32.5,32.5,0,0,1,10.331,6.668,30.985,30.985,0,0,1,6.965,9.891A29.789,29.789,0,0,1-2324,235.117a29.8,29.8,0,0,1-2.554,12.112,30.968,30.968,0,0,1-6.884,9.812l2.876,8.325-9.258-3.535a33.074,33.074,0,0,1-4.031,1.958,33.536,33.536,0,0,1-12.649,2.445A33.543,33.543,0,0,1-2369.151,263.788Zm2.523-19.091a2.935,2.935,0,0,0,2.932,2.931h11.308a2.935,2.935,0,0,0,2.931-2.931,2.935,2.935,0,0,0-2.931-2.932H-2363.7A2.935,2.935,0,0,0-2366.628,244.7Zm-8.938,0a2.94,2.94,0,0,0,2.943,2.93,2.94,2.94,0,0,0,2.943-2.93,2.94,2.94,0,0,0-2.943-2.93A2.94,2.94,0,0,0-2375.566,244.7Zm8.938-9.581a2.935,2.935,0,0,0,2.932,2.931h18.222a2.935,2.935,0,0,0,2.932-2.931,2.935,2.935,0,0,0-2.932-2.931H-2363.7A2.935,2.935,0,0,0-2366.628,235.117Zm-8.938,0a2.94,2.94,0,0,0,2.943,2.93,2.94,2.94,0,0,0,2.943-2.93,2.94,2.94,0,0,0-2.943-2.93A2.94,2.94,0,0,0-2375.566,235.118Zm8.938-9.581a2.935,2.935,0,0,0,2.932,2.931h26.04a2.935,2.935,0,0,0,2.931-2.931,2.935,2.935,0,0,0-2.931-2.931h-26.04A2.935,2.935,0,0,0-2366.628,225.536Zm-8.938,0a2.94,2.94,0,0,0,2.943,2.93,2.94,2.94,0,0,0,2.943-2.93,2.94,2.94,0,0,0-2.943-2.93A2.94,2.94,0,0,0-2375.566,225.537Z" transform="translate(2389 -204)" fill="#303030"/>
</svg>
