<svg xmlns="http://www.w3.org/2000/svg" width="23.495" height="37.506" viewBox="0 0 23.495 37.506">
  <g id="Group_10" data-name="Group 10" transform="translate(1 1)">
    <g id="mic" transform="translate(0 0)">
      <g id="Group_27" data-name="Group 27" transform="translate(0)">
        <path id="Path_2" data-name="Path 2" d="M14.184,1A4.92,4.92,0,0,0,9,5.6V17.88a4.92,4.92,0,0,0,5.184,4.6,4.92,4.92,0,0,0,5.184-4.6V5.6A4.92,4.92,0,0,0,14.184,1Z" transform="translate(-3.437 -1)" fill="none" stroke="#fff" stroke-linecap="round" stroke-linejoin="round" stroke-width="2"/>
        <path id="Path_3" data-name="Path 3" d="M26.5,12c0,6.681-4.812,12.1-10.748,12.1S5,18.681,5,12" transform="translate(-5 4.074)" fill="none" stroke="#fff" stroke-linecap="round" stroke-linejoin="round" stroke-width="2"/>
        <line id="Line_3" data-name="Line 3" y2="6.912" transform="translate(10.748 28.594)" fill="none" stroke="#fff" stroke-linecap="round" stroke-linejoin="round" stroke-width="2"/>
        <line id="Line_4" data-name="Line 4" x2="11.126" transform="translate(5.184 35.506)" fill="none" stroke="#fff" stroke-linecap="round" stroke-linejoin="round" stroke-width="2"/>
      </g>
    </g>
  </g>
</svg>
