<svg xmlns="http://www.w3.org/2000/svg" width="57" height="57" viewBox="0 0 57 57">
  <g id="Group_18" data-name="Group 18" transform="translate(-571 -1464)">
    <rect id="Path" width="57" height="57" transform="translate(571 1464)" fill="rgba(255,255,255,0)"/>
    <path id="bell-Regular_1_" d="M247.114,1188.067l-2.627-4.384a10.081,10.081,0,0,1-1.435-5.187v-6.239a16.019,16.019,0,0,0-32.039,0v6.239a10.1,10.1,0,0,1-1.435,5.187l-2.627,4.384a4.869,4.869,0,0,0,4.178,7.372h9.452c-.019.2-.078.392-.078.594a6.531,6.531,0,0,0,13.063,0c0-.2-.059-.394-.078-.594h9.452a4.864,4.864,0,0,0,4.173-7.372ZM230,1196.032a2.969,2.969,0,0,1-5.937,0,2.929,2.929,0,0,1,.078-.594h5.781A2.931,2.931,0,0,1,230,1196.032Zm14.077-4.821a1.284,1.284,0,0,1-1.14.663H211.125A1.305,1.305,0,0,1,210,1189.9l2.627-4.384a13.638,13.638,0,0,0,1.943-7.018v-6.239a12.457,12.457,0,0,1,24.914,0v6.239a13.66,13.66,0,0,0,1.943,7.018l2.627,4.384A1.278,1.278,0,0,1,244.076,1191.211Z" transform="translate(372.469 313.092)" fill="#303030"/>
  </g>
</svg>
