<svg xmlns="http://www.w3.org/2000/svg" width="40" height="40" viewBox="0 0 40 40">
  <g id="Group_25" data-name="Group 25" transform="translate(-55 -432)">
    <rect id="Path" width="40" height="40" transform="translate(55 432)" fill="rgba(255,255,255,0)"/>
    <path id="user-Regular_1_" d="M700.165,1245.75a8.75,8.75,0,1,0-8.75-8.75A8.76,8.76,0,0,0,700.165,1245.75Zm0-15a6.25,6.25,0,1,1-6.25,6.25A6.257,6.257,0,0,1,700.165,1230.75Zm12.917,23.7v1.685a6.281,6.281,0,0,1-1.6,4.2,1.249,1.249,0,1,1-1.862-1.667,3.8,3.8,0,0,0,.965-2.535v-1.685a5.432,5.432,0,0,0-4.072-5.309,1.7,1.7,0,0,0-1.243.16,10.513,10.513,0,0,1-10.193.005,1.68,1.68,0,0,0-1.252-.167,5.436,5.436,0,0,0-4.073,5.31v1.685a3.79,3.79,0,0,0,.965,2.535,1.25,1.25,0,1,1-1.862,1.668,6.288,6.288,0,0,1-1.6-4.2v-1.685a7.932,7.932,0,0,1,5.962-7.733,4.209,4.209,0,0,1,3.09.413,8,8,0,0,0,7.74-.005,4.215,4.215,0,0,1,3.082-.406A7.924,7.924,0,0,1,713.082,1254.445Z" transform="translate(-625.166 -792.5)"/>
  </g>
</svg>
