<svg xmlns="http://www.w3.org/2000/svg" width="25.833" height="32.498" viewBox="0 0 25.833 32.498">
  <defs>
    <style>
      .cls-1 {
        fill: #303030;
      }
    </style>
  </defs>
  <path id="bookmark-Regular_1_" class="cls-1" d="M465.167,1012.25h-10a7.926,7.926,0,0,0-7.917,7.917v21.663a2.917,2.917,0,0,0,4.578,2.4l8.1-5.612a.42.42,0,0,1,.475,0l8.105,5.612a2.917,2.917,0,0,0,4.577-2.4v-21.661A7.926,7.926,0,0,0,465.167,1012.25Zm5.417,29.58a.4.4,0,0,1-.223.37.4.4,0,0,1-.432-.027l-8.105-5.612a2.928,2.928,0,0,0-3.322,0l-8.1,5.61a.416.416,0,0,1-.653-.342v-21.664a5.423,5.423,0,0,1,5.417-5.417h10a5.423,5.423,0,0,1,5.417,5.417v21.663Z" transform="translate(-447.25 -1012.25)"/>
</svg>
