<svg xmlns="http://www.w3.org/2000/svg" width="40" height="40" viewBox="0 0 40 40">
  <g id="Group_26" data-name="Group 26" transform="translate(-55 -508)">
    <rect id="Path" width="40" height="40" transform="translate(55 508)" fill="rgba(255,255,255,0)"/>
    <g id="settings-Regular" transform="translate(58.75 511.75)">
      <path id="settings-Regular-2" data-name="settings-Regular" d="M18.5,24.75a6.25,6.25,0,1,1,6.25-6.25A6.257,6.257,0,0,1,18.5,24.75Zm0-10a3.75,3.75,0,1,0,3.75,3.75A3.754,3.754,0,0,0,18.5,14.75Zm.833,20H17.667A3.754,3.754,0,0,1,13.917,31a.6.6,0,0,0-.367-.567l-.013-.005a.551.551,0,0,0-.6.12,3.818,3.818,0,0,1-5.338.035L6.423,29.407a3.752,3.752,0,0,1,.007-5.312.61.61,0,0,0,.128-.655.562.562,0,0,0-.515-.357,3.763,3.763,0,0,1-3.793-3.75V17.667A3.754,3.754,0,0,1,6,13.917a.6.6,0,0,0,.565-.367l.007-.013a.554.554,0,0,0-.12-.6A3.751,3.751,0,0,1,6.417,7.6L7.6,6.417a3.838,3.838,0,0,1,5.3,0,.609.609,0,0,0,.662.143.556.556,0,0,0,.353-.513,3.764,3.764,0,0,1,3.75-3.8h1.667A3.754,3.754,0,0,1,23.083,6a.569.569,0,0,0,.35.555l0,0a.6.6,0,0,0,.638-.105A3.735,3.735,0,0,1,26.75,5.325h0a3.725,3.725,0,0,1,2.652,1.1L30.583,7.6a3.75,3.75,0,0,1,0,5.3.572.572,0,0,0-.152.642l.01.023a.554.554,0,0,0,.512.35,3.764,3.764,0,0,1,3.8,3.75v1.667A3.754,3.754,0,0,1,31,23.083a.569.569,0,0,0-.555.35l0,0a.608.608,0,0,0,.1.638,3.75,3.75,0,0,1,.028,5.332L29.4,30.583a3.838,3.838,0,0,1-5.3,0,.573.573,0,0,0-.642-.152.588.588,0,0,0-.373.522A3.764,3.764,0,0,1,19.333,34.75ZM14.652,28.2a3.111,3.111,0,0,1,1.765,2.757,1.261,1.261,0,0,0,1.25,1.3h1.667A1.25,1.25,0,0,0,20.583,31a3.118,3.118,0,0,1,1.925-2.882,3.04,3.04,0,0,1,3.322.662,1.258,1.258,0,0,0,1.8.035L28.81,27.64a1.253,1.253,0,0,0,0-1.772,3.123,3.123,0,0,1-.688-3.35l.008-.023.012-.028a3.034,3.034,0,0,1,2.818-1.883,1.26,1.26,0,0,0,1.293-1.25V17.667A1.25,1.25,0,0,0,31,16.417a3.063,3.063,0,0,1-2.865-1.883l0-.007a3.059,3.059,0,0,1,.648-3.357,1.277,1.277,0,0,0,.4-.92,1.238,1.238,0,0,0-.367-.883L27.64,8.19a1.25,1.25,0,0,0-.885-.365h0a1.234,1.234,0,0,0-.885.368,3.13,3.13,0,0,1-3.35.688L22.5,8.873l-.028-.012a3.034,3.034,0,0,1-1.883-2.818,1.26,1.26,0,0,0-1.25-1.293H17.667A1.25,1.25,0,0,0,16.417,6a3.063,3.063,0,0,1-1.9,2.873A3.1,3.1,0,0,1,11.17,8.22a1.262,1.262,0,0,0-1.8-.035L8.185,9.367a1.249,1.249,0,0,0,0,1.768,3.063,3.063,0,0,1,.7,3.358,1.554,1.554,0,0,1-.078.158,3.111,3.111,0,0,1-2.757,1.765,1.261,1.261,0,0,0-1.3,1.25v1.667A1.25,1.25,0,0,0,6,20.583a3.055,3.055,0,0,1,2.863,1.89l.01.022.008.023a3.117,3.117,0,0,1-.667,3.33,1.25,1.25,0,0,0-.39.9,1.237,1.237,0,0,0,.365.887l1.177,1.175a1.28,1.28,0,0,0,1.768,0,3.065,3.065,0,0,1,3.358-.7A1.554,1.554,0,0,1,14.652,28.2Z" transform="translate(-2.25 -2.25)"/>
    </g>
  </g>
</svg>
